<?xml version="1.0" encoding="utf-8"?>
<!-- Generator: Adobe Illustrator 23.0.2, SVG Export Plug-In . SVG Version: 6.00 Build 0)  -->
<svg version="1.1"
	 id="svg2" inkscape:version="0.48.4 r9939" sodipodi:docname="Novo documento 1" xmlns:cc="http://creativecommons.org/ns#" xmlns:dc="http://purl.org/dc/elements/1.1/" xmlns:inkscape="http://www.inkscape.org/namespaces/inkscape" xmlns:rdf="http://www.w3.org/1999/02/22-rdf-syntax-ns#" xmlns:sodipodi="http://sodipodi.sourceforge.net/DTD/sodipodi-0.dtd" xmlns:svg="http://www.w3.org/2000/svg"
	 xmlns="http://www.w3.org/2000/svg" xmlns:xlink="http://www.w3.org/1999/xlink" x="0px" y="0px" viewBox="0 0 256 36"
	 style="enable-background:new 0 0 256 36;" xml:space="preserve">
<style type="text/css">
	.st0{fill:#FFFFFF;}
</style>
<sodipodi:namedview  bordercolor="#666666" borderopacity="1.0" fit-margin-bottom="0" fit-margin-left="0" fit-margin-right="0" fit-margin-top="0" id="base" inkscape:bbox-nodes="true" inkscape:bbox-paths="true" inkscape:current-layer="layer1" inkscape:cx="99.317395" inkscape:cy="-130.04276" inkscape:document-units="px" inkscape:guide-bbox="true" inkscape:pageopacity="0.0" inkscape:pageshadow="2" inkscape:snap-bbox="true" inkscape:snap-bbox-edge-midpoints="true" inkscape:snap-bbox-midpoints="true" inkscape:window-height="876" inkscape:window-maximized="1" inkscape:window-width="1440" inkscape:window-x="0" inkscape:window-y="24" inkscape:zoom="1" pagecolor="#ffffff" showgrid="false" showguides="true">
	</sodipodi:namedview>
<g id="layer1" transform="translate(-110.28,-89.922179)" inkscape:groupmode="layer" inkscape:label="Camada 1">
	<g id="text3050" transform="matrix(0.87121315,0,0,0.86124411,14.202613,17.472443)">
		<g id="g3863">
			<path id="path3823" inkscape:connector-curvature="0" class="st0" d="M124,108.4c0,1.2-0.2,4.8-4.6,4.8c-1.8,0-3.5-0.5-3.5-2.6
				c0-2.1,1.6-2.7,3.4-3c1.8-0.3,3.8-0.4,4.7-1.2V108.4 M116.6,102c0.2-2.2,1.6-3.1,3.8-3.1c2,0,3.7,0.4,3.7,2.8
				c0,2.3-3.2,2.2-6.7,2.7c-3.5,0.5-7,1.6-7,6.3c0,4.2,3.1,6.2,7,6.2c2.5,0,5.2-0.7,7-2.6c0,0.7,0.2,1.4,0.4,2h5.8
				c-0.5-0.8-0.7-2.7-0.7-4.6V101c0-5-5-5.9-9.1-5.9c-4.6,0-9.4,1.6-9.7,6.9H116.6"/>
			<path id="path3825" inkscape:connector-curvature="0" class="st0" d="M132.8,116.4h5.7v-12c0-4,2.7-4.8,3.8-4.8
				c3.6,0,3.4,2.8,3.4,5.2v11.6h5.7v-11.5c0-2.6,0.6-5.2,3.8-5.2c3.2,0,3.5,2.3,3.5,5v11.7h5.7v-13.8c0-5.4-3.2-7.4-7.6-7.4
				c-2.9,0-5,1.6-6.2,3.4c-1.1-2.5-3.4-3.4-6-3.4c-2.7,0-4.8,1.2-6.3,3.4h-0.1v-2.8h-5.4L132.8,116.4"/>
			<path id="path3827" inkscape:connector-curvature="0" class="st0" d="M187,107.4c0.4-6.4-3-12.3-10-12.3
				c-6.3,0-10.6,4.7-10.6,10.9c0,6.4,4,10.9,10.6,10.9c4.7,0,8.1-2.1,9.7-7h-5c-0.4,1.3-2.2,2.7-4.5,2.7c-3.2,0-4.9-1.6-5.1-5.2H187
				 M172.1,103.8c0.1-1.6,1.1-4.4,4.7-4.4c2.8,0,4,1.5,4.5,4.4H172.1"/>
			<path id="path3829" inkscape:connector-curvature="0" class="st0" d="M188.8,116.4h5.7V107c0-3.6,1.4-6.6,5.6-6.6
				c0.7,0,1.5,0.1,2,0.2v-5.3c-0.4-0.1-0.8-0.2-1.2-0.2c-2.8,0-5.6,1.8-6.6,4.4h-0.1v-3.8h-5.4L188.8,116.4"/>
			<path id="path3853" inkscape:connector-curvature="0" class="st0" d="M204,116.4h5.7V95.1H204V116.4"/>
			<path id="path3833" inkscape:connector-curvature="0" class="st0" d="M231.3,103c-0.4-5.3-4.8-7.8-9.7-7.8
				c-6.7,0-10.6,4.8-10.6,11.2c0,6.2,4.2,10.6,10.4,10.6c5.4,0,9.2-3,10-8.5H226c-0.4,2.5-1.9,4.2-4.5,4.2c-3.6,0-4.7-3.6-4.7-6.5
				c0-3,1.2-6.7,4.8-6.7c2.4,0,3.8,1.2,4.2,3.6L231.3,103"/>
			<path id="path3835" inkscape:connector-curvature="0" class="st0" d="M246.1,108.4c0,1.2-0.2,4.8-4.6,4.8c-1.8,0-3.5-0.5-3.5-2.6
				c0-2.1,1.6-2.7,3.4-3c1.8-0.3,3.8-0.4,4.7-1.2V108.4 M238.6,102c0.2-2.2,1.6-3.1,3.8-3.1c2,0,3.7,0.4,3.7,2.8
				c0,2.3-3.2,2.2-6.7,2.7c-3.5,0.5-7,1.6-7,6.3c0,4.2,3.1,6.2,7,6.2c2.5,0,5.2-0.7,7-2.6c0,0.7,0.2,1.4,0.4,2h5.8
				c-0.5-0.8-0.7-2.7-0.7-4.6V101c0-5-5-5.9-9.1-5.9c-4.6,0-9.4,1.6-9.7,6.9H238.6"/>
			<path id="path3837" inkscape:connector-curvature="0" class="st0" d="M254.6,116.4h5.7v-10.8c0-4.2,1.3-5.9,4.4-5.9
				c2.6,0,3.6,1.7,3.6,5.1v11.7h5.7v-12.7c0-5.1-1.5-8.5-7.6-8.5c-2.4,0-4.9,1.1-6.3,3.4H260v-2.9h-5.4L254.6,116.4"/>
			<path id="path3839" inkscape:connector-curvature="0" class="st0" d="M289.8,108.4c0,1.2-0.2,4.8-4.6,4.8c-1.8,0-3.5-0.5-3.5-2.6
				c0-2.1,1.6-2.7,3.4-3c1.8-0.3,3.8-0.4,4.7-1.2L289.8,108.4 M282.3,102c0.2-2.2,1.6-3.1,3.8-3.1c2,0,3.7,0.4,3.7,2.8
				c0,2.3-3.2,2.2-6.7,2.7c-3.5,0.5-7,1.6-7,6.3c0,4.2,3.1,6.2,7,6.2c2.5,0,5.2-0.7,7-2.6c0,0.7,0.2,1.4,0.4,2h5.8
				c-0.5-0.8-0.7-2.7-0.7-4.6V101c0-5-5-5.9-9.1-5.9c-4.6,0-9.4,1.6-9.7,6.9H282.3"/>
			<path id="path3841" inkscape:connector-curvature="0" class="st0" d="M297.4,109.6c0.2,5.5,4.9,7.3,9.7,7.3
				c4.7,0,9.4-1.8,9.4-7.2c0-3.8-3.2-5-6.6-5.8c-3.2-0.8-6.4-1-6.4-3.1c0-1.7,1.9-1.9,3.2-1.9c2,0,3.7,0.6,3.9,2.8h5.4
				c-0.4-5.1-4.6-6.6-9.1-6.6c-4.4,0-9,1.4-9,6.6c0,3.6,3.3,4.8,6.6,5.5c4.1,0.9,6.4,1.5,6.4,3.2c0,2-2.1,2.6-3.7,2.6
				c-2.2,0-4.3-1-4.4-3.5L297.4,109.6"/>
		</g>
		<g id="g3857">
			<path id="path3845" inkscape:connector-curvature="0" class="st0" d="M347.6,103c-0.4-5.3-4.8-7.8-9.7-7.8
				c-6.7,0-10.6,4.8-10.6,11.2c0,6.2,4.2,10.6,10.4,10.6c5.4,0,9.2-3,10-8.5h-5.5c-0.4,2.5-1.9,4.2-4.5,4.2c-3.6,0-4.7-3.6-4.7-6.5
				c0-3,1.2-6.7,4.8-6.7c2.4,0,3.8,1.2,4.2,3.6L347.6,103"/>
			<path id="path3847" inkscape:connector-curvature="0" class="st0" d="M348.8,106c0,6.6,4.2,10.9,10.7,10.9
				c6.5,0,10.7-4.3,10.7-10.9c0-6.6-4.2-10.9-10.7-10.9C353,95.1,348.8,99.4,348.8,106 M354.5,106c0-3.3,1.2-6.6,5-6.6
				c3.9,0,5,3.3,5,6.6c0,3.3-1.2,6.6-5,6.6C355.6,112.6,354.5,109.3,354.5,106"/>
			<path id="path3849" inkscape:connector-curvature="0" class="st0" d="M372.5,116.4h5.7v-12c0-4,2.7-4.8,3.8-4.8
				c3.6,0,3.4,2.8,3.4,5.2v11.6h5.7v-11.5c0-2.6,0.6-5.2,3.8-5.2c3.2,0,3.5,2.3,3.5,5v11.7h5.7v-13.8c0-5.4-3.2-7.4-7.6-7.4
				c-2.9,0-5,1.6-6.2,3.4c-1.1-2.5-3.4-3.4-6-3.4c-2.7,0-4.8,1.2-6.3,3.4h-0.1v-2.8h-5.4V116.4"/>
			<path id="path3893" inkscape:connector-curvature="0" class="st0" d="M324.9,113.3c0,1.7-1.4,3.1-3.1,3.1s-3.1-1.4-3.1-3.1
				c0-1.7,1.4-3.1,3.1-3.1C323.5,110.2,324.9,111.6,324.9,113.3z"/>
		</g>
		<rect id="rect3855" x="110.3" y="84.1" class="st0" width="206.2" height="5"/>
		<rect id="rect3855-7" x="110.3" y="120.9" class="st0" width="206.2" height="5"/>
	</g>
</g>
</svg>
